Coordinates
version=1
nRows=26
nColumns=22
inDegrees=yes

Units are S.I. units (second, meters, Newtons, ...)
If the header above contains a line with 'inDegrees', this indicates whether rotational values are in degrees (yes) or radians (no).

endheader
time	pelvis_tilt	pelvis_list	pelvis_rotation	pelvis_tx	pelvis_ty	pelvis_tz	hip_flexion_r	hip_adduction_r	hip_rotation_r	knee_angle_r	ankle_angle_r	subtalar_angle_r	hip_flexion_l	hip_adduction_l	hip_rotation_l	knee_angle_l	ankle_angle_l	subtalar_angle_l	lumbar_extension	lumbar_bending	lumbar_rotation
      2.70000000	     -3.16118677	     -4.44301630	      8.53383982	      0.44948021	      0.95783190	     -0.30325163	      4.96961794	      1.87083543	     -3.49743671	    -47.36811699	      5.43662968	     14.43459010	     19.84953904	     -0.62046076	     10.29575872	    -20.13611192	      5.89582023	     -0.43261612	      0.01800441	      2.55613586	      1.42486205
      2.71000000	     -3.22244138	     -4.59668835	      8.27020049	      0.44188042	      0.95699098	     -0.30059565	      4.21110509	      2.32134348	     -3.11451211	    -46.14465914	      5.14434511	     15.01029147	     20.58863609	     -0.88653580	     10.19570895	    -20.39696748	      5.52120671	     -0.32196515	      0.04401451	      2.74205406	      1.67514762
      2.72000000	     -3.29006305	     -4.74302804	      7.99700413	      0.43416126	      0.95609702	     -0.29787091	      3.46487857	      2.74638003	     -2.72986183	    -44.76587114	      5.05971185	     15.25944319	     21.31286255	     -1.15875364	     10.08724816	    -20.60993007	      5.12047282	     -0.25437195	      0.06870856	      2.91900003	      1.91953685
      2.73000000	     -3.35605052	     -4.88050331	      7.72968831	      0.42626285	      0.95514911	     -0.29510639	      2.73613422	      3.13796285	     -2.35792524	    -43.26328463	      5.27196159	     15.48307964	     22.02444272	     -1.42627163	      9.99996302	    -20.78492623	      4.66803082	     -0.16274245	      0.07567048	      3.08664893	      2.16843698
      2.74000000	     -3.42972824	     -5.00178837	      7.45716261	      0.41818771	      0.95414210	     -0.29229012	      2.04799460	      3.49134549	     -1.99261942	    -41.67216535	      5.75178418	     15.61164035	     22.71839212	     -1.68654014	      9.91864736	    -20.90188454	      4.17597051	     -0.07022236	      0.07227808	      3.23711895	      2.42291983
      2.75000000	     -3.51120103	     -5.10833229	      7.17627785	      0.40992528	      0.95308271	     -0.28939052	      1.41794410	      3.81264587	     -1.64244495	    -40.03674629	      6.44618228	     15.63712350	     23.38914663	     -1.94482348	      9.83932373	    -20.94936814	      3.63274919	      0.01337977	      0.05779947	      3.36771711	      2.68526771
      2.76000000	     -3.60397376	     -5.19442762	      6.88442044	      0.40147968	      0.95198320	     -0.28641349	      0.86065195	      4.10022322	     -1.30443241	    -38.39754435	      7.27395321	     15.56076990	     24.02801546	     -2.19803751	      9.74992864	    -20.90954098	      3.05163217	      0.07481172	      0.03490121	      3.47374970	      2.92838400
      2.77000000	     -3.70481641	     -5.26747104	      6.58004185	      0.39283851	      0.95084696	     -0.28333737	      0.39319934	      4.36079326	     -1.01205917	    -36.80964306	      8.20629241	     15.36995167	     24.62979997	     -2.45518237	      9.66456742	    -20.77863197	      2.42604523	      0.09701109	     -0.00149900	      3.56075514	      3.18661244
      2.78000000	     -3.80734165	     -5.32880360	      6.26253273	      0.38402651	      0.94969914	     -0.28016070	      0.01696148	      4.59830157	     -0.78189266	    -35.30730529	      9.19406969	     15.03205051	     25.18071782	     -2.72213190	      9.57014540	    -20.54860371	      1.77360197	      0.04567547	     -0.05608914	      3.63068284	      3.44863992
      2.79000000	     -3.91533391	     -5.37446862	      5.94636598	      0.37505425	      0.94854342	     -0.27691065	     -0.25181766	      4.80421797	     -0.66443023	    -33.92914826	     10.22462973	     14.53981702	     25.68124165	     -2.98605490	      9.49052271	    -20.21708192	      1.10874076	     -0.10421178	     -0.12263071	      3.67771791	      3.70636406
      2.80000000	     -4.02163365	     -5.41615186	      5.66160999	      0.36593598	      0.94739452	     -0.27363601	     -0.41305644	      4.98676026	     -0.71994597	    -32.69717461	     11.28652651	     13.92007736	     26.13057697	     -3.24802666	      9.44232159	    -19.78834556	      0.46287330	     -0.35288939	     -0.20461943	      3.71738650	      3.90947503
      2.81000000	     -4.12916969	     -5.47214396	      5.37564877	      0.35670715	      0.94628054	     -0.27029091	     -0.47239569	      5.17939759	     -0.85807351	    -31.59892673	     12.35458121	     13.35228319	     26.53723939	     -3.53872770	      9.41217986	    -19.28720569	     -0.06717252	     -0.59972754	     -0.29343448	      3.76831850	      4.13404634
      2.82000000	     -4.23032469	     -5.55181915	      5.12869978	      0.34738801	      0.94521303	     -0.26692407	     -0.43205807	      5.38869218	     -1.14901946	    -30.64770277	     13.40687490	     12.70047058	     26.90415940	     -3.85435610	      9.40516880	    -18.72047401	     -0.44397858	     -0.90656936	     -0.39296276	      3.84219723	      4.29260263
      2.83000000	     -4.32740059	     -5.66346783	      4.89789273	      0.33799810	      0.94422834	     -0.26351578	     -0.29404459	      5.63120779	     -1.51175436	    -29.83532330	     14.40009804	     12.04383777	     27.24455511	     -4.21440458	      9.37594226	    -18.11360831	     -0.60295054	     -1.18828554	     -0.49954879	      3.94781486	      4.43197868
      2.84000000	     -4.43187468	     -5.80077514	      4.69165113	      0.32856542	      0.94333258	     -0.26010574	     -0.05154410	      5.89932528	     -1.92308173	    -29.15630362	     15.31760148	     11.40346929	     27.56821722	     -4.60313961	      9.34569794	    -17.46850880	     -0.48427285	     -1.41349198	     -0.59568910	      4.07902218	      4.54812063
      2.85000000	     -4.54268164	     -5.96079060	      4.51305522	      0.31912403	      0.94254779	     -0.25670811	      0.28537051	      6.19465223	     -2.33532874	    -28.59969497	     16.14563444	     10.78857572	     27.87702719	     -5.01634531	      9.29945301	    -16.79238795	     -0.07117214	     -1.55833438	     -0.67905189	      4.23248868	      4.63914293
      2.86000000	     -4.66021389	     -6.12621470	      4.36671416	      0.30972327	      0.94190901	     -0.25337617	      0.70097819	      6.49720982	     -2.72698311	    -28.14363145	     16.86343988	     10.18049989	     28.16400208	     -5.42825532	      9.24165311	    -16.08418405	      0.60217208	     -1.60275938	     -0.74479546	      4.39164192	      4.70489828
      2.87000000	     -4.77384534	     -6.30242187	      4.24731769	      0.30039022	      0.94143092	     -0.25013839	      1.18428644	      6.80853809	     -3.08092250	    -27.79079859	     17.47828506	      9.64968850	     28.42180660	     -5.84235654	      9.16983545	    -15.35921613	      1.49672666	     -1.54726149	     -0.80238403	      4.56798153	      4.74419448
      2.88000000	     -4.88141391	     -6.47661744	      4.15862651	      0.29116848	      0.94112905	     -0.24702112	      1.72336762	      7.11670909	     -3.39159167	    -27.53186280	     17.98409972	      9.13722869	     28.64069107	     -6.23925576	      9.09324414	    -14.61941729	      2.51718209	     -1.38267919	     -0.85028817	      4.74758545	      4.74952310
      2.89000000	     -4.96827076	     -6.63593367	      4.09612120	      0.28210101	      0.94102802	     -0.24403833	      2.28503327	      7.40741045	     -3.66462005	    -27.34284116	     18.39087670	      8.68377221	     28.81319834	     -6.60456769	      9.00893716	    -13.90481484	      3.56377585	     -1.13777544	     -0.90448724	      4.91600363	      4.72644944
      2.90000000	     -5.04101461	     -6.77027224	      4.07134978	      0.27324483	      0.94111520	     -0.24125622	      2.85041618	      7.66524112	     -3.92975236	    -27.18878824	     18.71377294	      8.23096754	     28.95315693	     -6.91531954	      8.91788141	    -13.24940907	      4.54033859	     -0.78953256	     -0.94821367	      5.06717862	      4.70082087
      2.91000000	     -5.08110080	     -6.88935010	      4.06290072	      0.26456593	      0.94139075	     -0.23862669	      3.41473389	      7.90672239	     -4.16002276	    -27.09712252	     18.93907311	      7.85728647	     29.06928138	     -7.19091400	      8.79461908	    -12.72588101	      5.38158395	     -0.45292490	     -1.01294416	      5.21139942	      4.63234028
      2.92000000	     -5.09881399	     -6.97304429	      4.08002969	      0.25611340	      0.94183682	     -0.23619244	      3.95443026	      8.10617076	     -4.39324995	    -27.01817496	     19.09468900	      7.49340820	     29.17810813	     -7.40159123	      8.64057300	    -12.37695670	      6.02969144	     -0.11681939	     -1.08123297	      5.32404631	      4.55008715
      2.93000000	     -5.09053273	     -7.02342192	      4.12082464	      0.24790171	      0.94244094	     -0.23395208	      4.44298755	      8.26961086	     -4.61727380	    -26.91856362	     19.19036203	      7.14666709	     29.29996473	     -7.54891677	      8.43179601	    -12.26690609	      6.48987453	      0.15203813	     -1.15613484	      5.41043560	      4.44106782
      2.94000000	     -5.06116973	     -7.03647488	      4.17194221	      0.23990234	      0.94318841	     -0.23187712	      4.89379404	      8.39534952	     -4.81670997	    -26.81494677	     19.21528252	      6.78861398	     29.41576782	     -7.63725506	      8.22726341	    -12.37544492	      6.78942764	      0.35695216	     -1.23872111	      5.46126971	      4.31952042
      2.95000000	     -4.99920476	     -7.03287733	      4.23530986	      0.23208956	      0.94407479	     -0.22997089	      5.28985816	      8.49851355	     -5.04300168	    -26.69250820	     19.15850290	      6.34206908	     29.55115573	     -7.68706637	      7.99259187	    -12.76370047	      6.92652390	      0.52481081	     -1.34478690	      5.50372948	      4.20444512
